<svg xmlns="http://www.w3.org/2000/svg" viewBox="0 0 32 32" width="100" height="100"><title>money</title><g class="nc-icon-wrapper" fill="#38b000"><path d="M26.304 4.928l-3.68 3.424H9.376l-3.68-3.424s1.824-2.56 4.832-2.88c2.976-.32 4 1.472 5.472 1.536 1.472-.064 2.496-1.856 5.44-1.536 3.04.32 4.864 2.88 4.864 2.88zm-9.792 16.448v2.56c.384-.064.704-.192.96-.448.224-.256.352-.544.352-.864a1.04 1.04 0 0 0-.32-.768c-.192-.192-.544-.384-.992-.48zm-2.176-3.328c0 .256.096.48.256.672.192.192.416.352.768.48v-2.304a1.9 1.9 0 0 0-.736.448c-.192.224-.288.448-.288.704zm14.208 8.896s-.832 3.072-4.48 3.072H7.936c-3.68 0-4.48-3.072-4.48-3.072C1.056 16.32 8.384 10.56 8.384 10.56h15.232s7.328 5.76 4.928 16.384zm-8.8-4.544c0-.736-.224-1.312-.672-1.76-.448-.448-1.312-.832-2.56-1.12v-2.592c.512.192.8.544.928 1.056l1.984-.224c-.128-.64-.448-1.184-.928-1.568-.48-.416-1.152-.64-1.984-.736v-.64H15.36v.64c-.896.096-1.6.384-2.144.864s-.832 1.088-.832 1.824c0 .704.256 1.312.736 1.824s1.216.864 2.24 1.12v2.784a2.545 2.545 0 0 1-.768-.576 1.833 1.833 0 0 1-.448-.896l-2.048.16c.128.896.512 1.568 1.056 2.048.576.448 1.312.736 2.208.832v1.216h1.152v-1.248c1.024-.128 1.824-.448 2.368-.992.576-.576.864-1.248.864-2.016z" fill="#38b000"/></g></svg>