<svg xmlns="http://www.w3.org/2000/svg" viewBox="0 0 44.29 49.27"><defs><style>.cls-1{fill:hsl(120,100%,25%);}</style></defs><g id="Layer_2" data-name="Layer 2"><g id="OBJECTS"><path class="cls-1" d="M43.27,29.57A21.54,21.54,0,0,1,38,37.09c-.88.8-4.72,4-8.21,3.7s-3.09-4.17-3-5a15,15,0,0,1,.89-3.21l.09,0-.06,0a18,18,0,0,1,3.8-5.74,34.15,34.15,0,0,1-3.68,1.75c-2.9,1-2.28-1.21-1.94-2.09a20.4,20.4,0,0,1,1.65-3.24s-.74.9-1.86,2.17c-2.87,2.7-5.11.89-5.89,0-1.85-2.17-3-3.88-3-3.88s.62,1.41,1.28,3.38c.28.83,1.46,5-2.88,2.94C13.87,27.25,13,26.76,13,26.76a17.27,17.27,0,0,1,4.79,9.52c.08,1.32-.09,4.25-3,4.51-3.81.33-8-3.51-8.38-3.85,0,0,0,0,0,0a21.57,21.57,0,0,1-5.16-7.37,21.07,21.07,0,0,0,42.05,0Z"/><path class="cls-1" d="M24.5,13.4c0,2.18-2.25,4-2.25,4S20,15.58,20,13.4s2.26-4,2.26-4S24.5,11.21,24.5,13.4Z"/><path class="cls-1" d="M24.5,4c0,2.19-2.25,4-2.25,4S20,6.14,20,4,22.25,0,22.25,0,24.5,1.77,24.5,4Z"/><path class="cls-1" d="M24,22a4.65,4.65,0,0,1-1.75,3.08A4.65,4.65,0,0,1,20.49,22a4.68,4.68,0,0,1,1.76-3.08A4.68,4.68,0,0,1,24,22Z"/><path class="cls-1" d="M29.73,16.86c-1.07,1.9-3.9,2.34-3.9,2.34s-1.1-2.65,0-4.55,3.91-2.34,3.91-2.34S30.8,15,29.73,16.86Z"/><path class="cls-1" d="M34.81,7.7C33.74,9.61,30.91,10,30.91,10s-1.1-2.65,0-4.55,3.91-2.34,3.91-2.34S35.88,5.8,34.81,7.7Z"/><path class="cls-1" d="M32.87,21.92c-1.87,1.14-4.55.14-4.55.14s.33-2.85,2.19-4,4.55-.14,4.55-.14S34.73,20.78,32.87,21.92Z"/><path class="cls-1" d="M10,26.8a4.44,4.44,0,0,1-3-1.52,4.42,4.42,0,0,1,2.83-1.82,4.44,4.44,0,0,1,3,1.52A4.46,4.46,0,0,1,10,26.8Z"/><path class="cls-1" d="M33.53,27.15a4.44,4.44,0,0,0,3-1.52,4.46,4.46,0,0,0-2.83-1.82,4.44,4.44,0,0,0-3,1.52A4.46,4.46,0,0,0,33.53,27.15Z"/><path class="cls-1" d="M11,21.94c-1.88-1.11-2.27-4-2.27-4s2.67-1,4.55.06S15.53,22,15.53,22,12.86,23.05,11,21.94Z"/><path class="cls-1" d="M2.26,16.7C.38,15.6,0,12.75,0,12.75s2.67-1,4.55.06,2.27,4,2.27,4S4.15,17.81,2.26,16.7Z"/><path class="cls-1" d="M3.07,23.18c-2-.77-2.9-3.51-2.9-3.51S2.62,18.19,4.66,19s2.91,3.51,2.91,3.51S5.12,24,3.07,23.18Z"/><path class="cls-1" d="M7.58,13.91c-1.48-1.61-1-4.44-1-4.44s2.86-.22,4.33,1.39,1,4.44,1,4.44S9.06,15.52,7.58,13.91Z"/><path class="cls-1" d="M15.5,9c-.77-2,.72-4.49.72-4.49s2.73.86,3.5,2.9-.71,4.5-.71,4.5S16.27,11,15.5,9Z"/><path class="cls-1" d="M40.29,23.08c2-1,2.53-3.78,2.53-3.78s-2.59-1.23-4.54-.25-2.53,3.78-2.53,3.78S38.34,24.06,40.29,23.08Z"/><path class="cls-1" d="M41.76,16.54c2-1,2.53-3.78,2.53-3.78s-2.59-1.23-4.55-.26-2.53,3.79-2.53,3.79S39.8,17.51,41.76,16.54Z"/><path class="cls-1" d="M36.47,13.85c1.42-1.65.86-4.47.86-4.47s-2.86-.12-4.28,1.54-.87,4.47-.87,4.47S35.05,15.51,36.47,13.85Z"/><path class="cls-1" d="M28.85,9c.77-2-.71-4.49-.71-4.49s-2.74.86-3.51,2.9.72,4.5.72,4.5S28.08,11,28.85,9Z"/><path class="cls-1" d="M14.6,16.94c-1.15-1.86-.15-4.55-.15-4.55s2.84.32,4,2.18.15,4.55.15,4.55S15.74,18.79,14.6,16.94Z"/><path class="cls-1" d="M9.5,7.34c-1.15-1.86-.16-4.55-.16-4.55s2.85.33,4,2.18.15,4.55.15,4.55S10.64,9.2,9.5,7.34Z"/></g></g></svg>